<svg xmlns="http://www.w3.org/2000/svg" xml:space="preserve" width="256" height="256"><g style="stroke:none;stroke-width:0;stroke-dasharray:none;stroke-linecap:butt;stroke-linejoin:miter;stroke-miterlimit:10;fill:none;fill-rule:nonzero;opacity:1"><path d="M45 0C28.967 0 14.902 8.392 6.932 21.015a16.498 16.498 0 0 0 9.693 3.145h32.399c17.08 0 32.123 8.704 40.948 21.915.009-.359.028-.715.028-1.075C90 20.147 69.853 0 45 0z" style="stroke:none;stroke-width:1;stroke-dasharray:none;stroke-linecap:butt;stroke-linejoin:miter;stroke-miterlimit:10;fill:#1f9bda;fill-rule:nonzero;opacity:1" transform="matrix(2.81 0 0 2.81 1.407 1.407)"/><path d="M90 45c0-1.207-.062-2.399-.155-3.583-8.843-13.682-23.825-20.532-40.821-20.532H16.625c-3.159 0-6.101-.494-8.614-1.504A44.752 44.752 0 0 0 .063 42.629c9.023 11.127 22.794 18.247 38.236 18.247h.744c9.038 0 13.101 3.942 13.329 12.925.004-.143.022-.282.022-.426 0 8.417-3.516 15.355-11.172 16.456 1.247.103 2.504.169 3.778.169 24.853 0 45-20.147 45-45z" style="stroke:none;stroke-width:1;stroke-dasharray:none;stroke-linecap:butt;stroke-linejoin:miter;stroke-miterlimit:10;fill:#1d90cb;fill-rule:nonzero;opacity:1" transform="matrix(2.81 0 0 2.81 1.407 1.407)"/><path d="M41.27 89.834c7.988-1.072 14.169-7.802 14.378-16.034-.228-8.983-7.566-16.2-16.604-16.2H38.3C23.004 57.6 9.353 50.608.327 39.662A45.227 45.227 0 0 0 0 45c0 23.595 18.164 42.936 41.27 44.834z" style="stroke:none;stroke-width:1;stroke-dasharray:none;stroke-linecap:butt;stroke-linejoin:miter;stroke-miterlimit:10;fill:#1b86bc;fill-rule:nonzero;opacity:1" transform="matrix(2.81 0 0 2.81 1.407 1.407)"/><path d="m36.371 52.976 19.271 14.237c2.2 1.214 3.786.586 4.334-2.041l7.844-36.964c.803-3.22-1.227-4.681-3.331-3.726l-46.061 17.76c-3.144 1.261-3.125 3.016-.573 3.797l11.821 3.689L57.04 32.464c1.292-.783 2.478-.362 1.505.502l-22.174 20.01z" style="stroke:none;stroke-width:1;stroke-dasharray:none;stroke-linecap:butt;stroke-linejoin:miter;stroke-miterlimit:10;fill:#fcfdff;fill-rule:nonzero;opacity:1" transform="matrix(2.81 0 0 2.81 1.407 1.407)"/></g></svg>