<svg xmlns="http://www.w3.org/2000/svg" xml:space="preserve" width="256" height="256"><g style="stroke:none;stroke-width:0;stroke-dasharray:none;stroke-linecap:butt;stroke-linejoin:miter;stroke-miterlimit:10;fill:none;fill-rule:nonzero;opacity:1"><path d="M45 0C28.967 0 14.902 8.392 6.932 21.015a16.498 16.498 0 0 0 9.693 3.145h32.399c17.08 0 32.123 8.704 40.948 21.915.009-.359.028-.715.028-1.075C90 20.147 69.853 0 45 0z" style="stroke:none;stroke-width:1;stroke-dasharray:none;stroke-linecap:butt;stroke-linejoin:miter;stroke-miterlimit:10;fill:#5181b8;fill-rule:nonzero;opacity:1" transform="matrix(2.81 0 0 2.81 1.407 1.407)"/><path d="M90 45c0-1.207-.062-2.399-.155-3.583-8.843-13.682-23.825-20.532-40.821-20.532H16.625c-3.159 0-6.101-.494-8.614-1.504A44.752 44.752 0 0 0 .063 42.629c9.023 11.127 22.794 18.247 38.236 18.247h.744c9.038 0 13.101 3.942 13.329 12.925.004-.143.022-.282.022-.426 0 8.417-3.516 15.355-11.172 16.456 1.247.103 2.504.169 3.778.169 24.853 0 45-20.147 45-45z" style="stroke:none;stroke-width:1;stroke-dasharray:none;stroke-linecap:butt;stroke-linejoin:miter;stroke-miterlimit:10;fill:#4b76a7;fill-rule:nonzero;opacity:1" transform="matrix(2.81 0 0 2.81 1.407 1.407)"/><path d="M41.27 89.834c7.988-1.072 14.169-7.802 14.378-16.034-.228-8.983-7.566-16.2-16.604-16.2H38.3C23.004 57.6 9.353 50.608.327 39.662A45.227 45.227 0 0 0 0 45c0 23.595 18.164 42.936 41.27 44.834z" style="stroke:none;stroke-width:1;stroke-dasharray:none;stroke-linecap:butt;stroke-linejoin:miter;stroke-miterlimit:10;fill:#466d99;fill-rule:nonzero;opacity:1" transform="matrix(2.81 0 0 2.81 1.407 1.407)"/><path d="M71.238 30.879c.382-1.275 0-2.211-1.82-2.211H63.4c-1.53 0-2.235.81-2.618 1.702 0 0-3.06 7.458-7.395 12.303-1.403 1.403-2.04 1.848-2.805 1.848-.382 0-.936-.447-.936-1.721V30.88c0-1.53-.444-2.211-1.719-2.211h-9.454c-.956 0-1.531.71-1.531 1.383 0 1.45 2.167 1.785 2.39 5.864v8.861c0 1.943-.351 2.295-1.116 2.295-2.04 0-7.001-7.492-9.944-16.064-.577-1.666-1.155-2.339-2.693-2.339h-6.017c-1.719 0-2.063.81-2.063 1.702 0 1.594 2.04 9.498 9.498 19.952 4.972 7.14 11.977 11.01 18.352 11.01 3.824 0 4.298-.86 4.298-2.34v-5.396c0-1.719.362-2.062 1.573-2.062.892 0 2.422.447 5.992 3.888 4.08 4.08 4.752 5.91 7.047 5.91h6.017c1.719 0 2.579-.86 2.083-2.556-.543-1.691-2.49-4.143-5.075-7.052-1.403-1.658-3.506-3.442-4.143-4.335-.892-1.147-.637-1.658 0-2.677.002-.001 7.332-10.328 8.097-13.834z" style="stroke:none;stroke-width:1;stroke-dasharray:none;stroke-linecap:butt;stroke-linejoin:miter;stroke-miterlimit:10;fill:#fff;fill-rule:nonzero;opacity:1" transform="matrix(2.81 0 0 2.81 1.407 1.407)"/></g></svg>